# xmcd
#
# Track frame offsets:
#	150
#	21187
#	43236
#	68736
#	82535
#	101734
#
# Disc length: 1654 seconds
#
# Revision: 0
# Processed by: cddbd v1.5.1PL0 Copyright (c) Steve Scherf et al.
# Submitted via: AudioConverter v4.5 Copyright (c) AC Productions Ltd
#
DISCID=41067406
DTITLE=Clare Blackman - Clare Blackman
DYEAR=2005
DGENRE=Country
TTITLE0=Ripe
TTITLE1=Long Way
TTITLE2=Lofty and I
TTITLE3=Choke
TTITLE4=Elbowroom
TTITLE5=Blue
EXTD=
EXTT0=
EXTT1=
EXTT2=
EXTT3=
EXTT4=
EXTT5=
PLAYORDER=
